<?xml version="1.0" encoding="UTF-8" standalone="no"?>
<!-- Created with Inkscape (http://www.inkscape.org/) -->

<svg
   xmlns:dc="http://purl.org/dc/elements/1.1/"
   xmlns:cc="http://creativecommons.org/ns#"
   xmlns:rdf="http://www.w3.org/1999/02/22-rdf-syntax-ns#"
   xmlns:svg="http://www.w3.org/2000/svg"
   xmlns="http://www.w3.org/2000/svg"
   xmlns:sodipodi="http://sodipodi.sourceforge.net/DTD/sodipodi-0.dtd"
   xmlns:inkscape="http://www.inkscape.org/namespaces/inkscape"
   width="210mm"
   height="297mm"
   viewBox="0 0 744.09448819 1052.3622047"
   id="svg5755"
   version="1.1"
   inkscape:version="0.91 r13725"
   sodipodi:docname="triangle.svg">
  <defs
     id="defs5757" />
  <sodipodi:namedview
     id="base"
     pagecolor="#ffffff"
     bordercolor="#666666"
     borderopacity="1.0"
     inkscape:pageopacity="0.0"
     inkscape:pageshadow="2"
     inkscape:zoom="1.4"
     inkscape:cx="319.19812"
     inkscape:cy="622.07004"
     inkscape:document-units="px"
     inkscape:current-layer="layer1"
     showgrid="false"
     inkscape:window-width="1676"
     inkscape:window-height="1006"
     inkscape:window-x="4"
     inkscape:window-y="0"
     inkscape:window-maximized="1" />
  <metadata
     id="metadata5760">
    <rdf:RDF>
      <cc:Work
         rdf:about="">
        <dc:format>image/svg+xml</dc:format>
        <dc:type
           rdf:resource="http://purl.org/dc/dcmitype/StillImage" />
        <dc:title></dc:title>
      </cc:Work>
    </rdf:RDF>
  </metadata>
  <g
     inkscape:label="Layer 1"
     inkscape:groupmode="layer"
     id="layer1">
    <path
       sodipodi:type="star"
       style="fill:#b9dade;fill-opacity:1;stroke:#000000;stroke-width:3.5;stroke-miterlimit:4;stroke-dasharray:none;stroke-opacity:1"
       id="path5765"
       sodipodi:sides="3"
       sodipodi:cx="357.59402"
       sodipodi:cy="455.03232"
       sodipodi:r1="126.29982"
       sodipodi:r2="63.149918"
       sodipodi:arg1="0.52359878"
       sodipodi:arg2="1.5707963"
       inkscape:flatsided="true"
       inkscape:rounded="0"
       inkscape:randomized="0"
       d="m 466.97288,518.18223 -218.75771,0 109.37886,-189.44973 z"
       inkscape:transform-center-y="-31.574938"
       inkscape:transform-center-x="-2.8820855e-05" />
    <circle
       style="fill:#ffffff;fill-opacity:1;stroke:#000000;stroke-width:3.5;stroke-miterlimit:4;stroke-dasharray:none;stroke-opacity:1"
       id="path6307"
       cx="357.08893"
       cy="328.58789"
       r="9.0913725" />
    <circle
       r="9.0913725"
       cy="328.58789"
       cx="357.08893"
       id="circle6349"
       style="fill:#ffffff;fill-opacity:1;stroke:#000000;stroke-width:3.5;stroke-miterlimit:4;stroke-dasharray:none;stroke-opacity:1" />
    <circle
       style="fill:#ffffff;fill-opacity:1;stroke:#000000;stroke-width:3.5;stroke-miterlimit:4;stroke-dasharray:none;stroke-opacity:1"
       id="circle6351"
       cx="357.08893"
       cy="328.58789"
       r="9.0913725" />
    <circle
       r="9.0913725"
       cy="328.58789"
       cx="357.08893"
       id="circle6353"
       style="fill:#000000;fill-opacity:1;stroke:#000000;stroke-width:3.5;stroke-miterlimit:4;stroke-dasharray:none;stroke-opacity:1" />
    <circle
       style="fill:#000000;fill-opacity:1;stroke:#000000;stroke-width:3.5;stroke-miterlimit:4;stroke-dasharray:none;stroke-opacity:1"
       id="circle6366"
       cx="465.17526"
       cy="517.99146"
       r="9.0913725" />
    <circle
       r="9.0913725"
       cy="516.47626"
       cx="246.98232"
       id="circle6370"
       style="fill:#000000;fill-opacity:1;stroke:#000000;stroke-width:3.5;stroke-miterlimit:4;stroke-dasharray:none;stroke-opacity:1" />
    <path
       style="fill:none;fill-rule:evenodd;stroke:#000000;stroke-width:2;stroke-linecap:butt;stroke-linejoin:miter;stroke-miterlimit:4;stroke-dasharray:none;stroke-opacity:1"
       d="m 304.9633,418.28312 c -0.76247,0.30031 -1.52493,0.60063 -2.2874,0.90094 -3.20235,1.2613 -6.4047,2.52261 -9.60705,3.78391 -0.30498,0.12013 -0.60997,0.24024 -0.91496,0.36037 -0.15248,0.0601 -0.38334,0.36838 -0.45748,0.18019 -0.0741,-0.18821 0.38335,-0.3684 0.45748,-0.18019 0.0741,0.1882 -0.30498,0.12013 -0.45748,0.18019 -0.15248,0.0601 -0.38334,0.36838 -0.45747,0.18019 -0.0741,-0.18822 0.29723,-0.27081 0.45747,-0.18019 0.16025,0.0906 0.14827,0.3764 0.22239,0.56461"
       id="path6437"
       inkscape:connector-curvature="0" />
    <path
       inkscape:connector-curvature="0"
       id="path6439"
       d="m 305.65968,417.85876 c 0.24337,0.78251 0.48675,1.56501 0.73013,2.3475 1.02217,3.28651 2.04435,6.57301 3.06651,9.85951 0.0974,0.313 0.19472,0.626 0.29206,0.93901 0.0487,0.15649 0.33915,0.40942 0.14602,0.46948 -0.19315,0.0601 -0.33918,-0.40941 -0.14602,-0.46948 0.19315,-0.0601 0.0974,0.31299 0.14602,0.46948 0.0487,0.1565 0.33918,0.40943 0.14602,0.46951 -0.19315,0.0601 -0.24818,-0.31635 -0.14602,-0.46951 0.10216,-0.15314 0.3863,-0.12014 0.57945,-0.18022"
       style="fill:none;fill-rule:evenodd;stroke:#000000;stroke-width:2;stroke-linecap:butt;stroke-linejoin:miter;stroke-miterlimit:4;stroke-dasharray:none;stroke-opacity:1" />
    <path
       style="fill:none;fill-rule:evenodd;stroke:#000000;stroke-width:2;stroke-linecap:butt;stroke-linejoin:miter;stroke-miterlimit:4;stroke-dasharray:none;stroke-opacity:1"
       d="m 401.23391,424.81883 c 0.78251,0.24337 1.56501,0.48675 2.3475,0.73013 3.28651,1.02217 6.57301,2.04435 9.85951,3.06651 0.313,0.0974 0.626,0.19472 0.93901,0.29206 0.15649,0.0487 0.40942,0.33915 0.46948,0.14602 0.0601,-0.19315 -0.40941,-0.33918 -0.46948,-0.14602 -0.0601,0.19315 0.31299,0.0974 0.46948,0.14602 0.1565,0.0487 0.40943,0.33918 0.46951,0.14602 0.0601,-0.19315 -0.31635,-0.24818 -0.46951,-0.14602 -0.15314,0.10216 -0.12014,0.3863 -0.18022,0.57945"
       id="path6441"
       inkscape:connector-curvature="0" />
    <path
       inkscape:connector-curvature="0"
       id="path6443"
       d="m 420.55515,415.91827 c -0.30031,0.76247 -0.60063,1.52493 -0.90094,2.2874 -1.2613,3.20235 -2.52261,6.4047 -3.78391,9.60705 -0.12013,0.30498 -0.24024,0.60997 -0.36037,0.91496 -0.0601,0.15248 -0.36838,0.38334 -0.18019,0.45748 0.18821,0.0741 0.3684,-0.38335 0.18019,-0.45748 -0.1882,-0.0741 -0.12013,0.30498 -0.18019,0.45748 -0.0601,0.15248 -0.36838,0.38334 -0.18019,0.45747 0.18822,0.0741 0.27081,-0.29723 0.18019,-0.45747 -0.0906,-0.16025 -0.3764,-0.14827 -0.56461,-0.22239"
       style="fill:none;fill-rule:evenodd;stroke:#000000;stroke-width:2;stroke-linecap:butt;stroke-linejoin:miter;stroke-miterlimit:4;stroke-dasharray:none;stroke-opacity:1" />
    <path
       inkscape:connector-curvature="0"
       id="path6445"
       d="m 363.75507,518.45906 c -0.66148,0.48372 -1.32296,0.96745 -1.98444,1.45118 -2.77821,2.03162 -5.5564,4.06326 -8.33461,6.09488 -0.26458,0.19349 -0.52918,0.38697 -0.79377,0.58047 -0.13228,0.0968 -0.27748,0.4535 -0.39689,0.29024 -0.11937,-0.1633 0.27749,-0.45353 0.39689,-0.29024 0.11937,0.16327 -0.26458,0.19349 -0.39689,0.29024 -0.13227,0.0968 -0.27748,0.45349 -0.39687,0.29022 -0.11939,-0.16329 0.2189,-0.33728 0.39687,-0.29022 0.17797,0.047 0.23881,0.32654 0.35821,0.48982"
       style="fill:none;fill-rule:evenodd;stroke:#000000;stroke-width:2;stroke-linecap:butt;stroke-linejoin:miter;stroke-miterlimit:4;stroke-dasharray:none;stroke-opacity:1" />
    <path
       style="fill:none;fill-rule:evenodd;stroke:#000000;stroke-width:2;stroke-linecap:butt;stroke-linejoin:miter;stroke-miterlimit:4;stroke-dasharray:none;stroke-opacity:1"
       d="m 351.61445,509.17335 c 0.66148,0.48372 1.32296,0.96745 1.98444,1.45118 2.77821,2.03162 5.5564,4.06326 8.33461,6.09488 0.26458,0.19349 0.52918,0.38697 0.79377,0.58047 0.13228,0.0968 0.27748,0.4535 0.39689,0.29024 0.11937,-0.1633 -0.27749,-0.45353 -0.39689,-0.29024 -0.11937,0.16327 0.26458,0.19349 0.39689,0.29024 0.13227,0.0968 0.27748,0.45349 0.39687,0.29022 0.11939,-0.16329 -0.2189,-0.33728 -0.39687,-0.29022 -0.17797,0.047 -0.23881,0.32654 -0.35821,0.48982"
       id="path6449"
       inkscape:connector-curvature="0" />
    <flowRoot
       xml:space="preserve"
       id="flowRoot6470"
       style="font-style:normal;font-variant:normal;font-weight:normal;font-stretch:normal;font-size:40px;line-height:125%;font-family:Times;-inkscape-font-specification:Times;letter-spacing:0px;word-spacing:0px;fill:#000000;fill-opacity:1;stroke:none;stroke-width:1px;stroke-linecap:butt;stroke-linejoin:miter;stroke-opacity:1"
       transform="translate(7.8571429,-10.714286)"><flowRegion
         id="flowRegion6472"><rect
           id="rect6474"
           width="46.428577"
           height="48.571415"
           x="340.71429"
           y="443.07648"
           style="font-style:normal;font-variant:normal;font-weight:normal;font-stretch:normal;font-family:Times;-inkscape-font-specification:Times" /></flowRegion><flowPara
         id="flowPara6476"
         style="font-size:35px">T</flowPara></flowRoot>    <flowRoot
       xml:space="preserve"
       id="flowRoot6478"
       style="font-style:normal;font-weight:normal;font-size:40px;line-height:125%;font-family:sans-serif;letter-spacing:0px;word-spacing:0px;fill:#000000;fill-opacity:1;stroke:none;stroke-width:1px;stroke-linecap:butt;stroke-linejoin:miter;stroke-opacity:1"
       transform="translate(17.857143,-15.680106)"><flowRegion
         id="flowRegion6480"><rect
           id="rect6482"
           width="36.42857"
           height="49.999973"
           x="200.71428"
           y="523.07648" /></flowRegion><flowPara
         id="flowPara6484"
         style="font-style:normal;font-variant:normal;font-weight:normal;font-stretch:normal;font-size:35px;font-family:times;-inkscape-font-specification:times">a</flowPara></flowRoot>    <flowRoot
       transform="translate(276.42858,-15.757011)"
       style="font-style:normal;font-weight:normal;font-size:40px;line-height:125%;font-family:sans-serif;letter-spacing:0px;word-spacing:0px;fill:#000000;fill-opacity:1;stroke:none;stroke-width:1px;stroke-linecap:butt;stroke-linejoin:miter;stroke-opacity:1"
       id="flowRoot6509"
       xml:space="preserve"><flowRegion
         id="flowRegion6511"><rect
           y="523.07648"
           x="200.71428"
           height="49.999973"
           width="36.42857"
           id="rect6513" /></flowRegion><flowPara
         style="font-style:normal;font-variant:normal;font-weight:normal;font-stretch:normal;font-size:35px;font-family:times;-inkscape-font-specification:times"
         id="flowPara6515">c</flowPara></flowRoot>    <flowRoot
       xml:space="preserve"
       id="flowRoot6517"
       style="font-style:normal;font-weight:normal;font-size:40px;line-height:125%;font-family:sans-serif;letter-spacing:0px;word-spacing:0px;fill:#000000;fill-opacity:1;stroke:none;stroke-width:1px;stroke-linecap:butt;stroke-linejoin:miter;stroke-opacity:1"
       transform="translate(148.57143,-245.85714)"><flowRegion
         id="flowRegion6519"><rect
           id="rect6521"
           width="36.42857"
           height="49.999973"
           x="200.71428"
           y="523.07648" /></flowRegion><flowPara
         id="flowPara6523"
         style="font-style:normal;font-variant:normal;font-weight:normal;font-stretch:normal;font-size:35px;font-family:times;-inkscape-font-specification:times">b</flowPara></flowRoot>    <flowRoot
       transform="translate(72.857144,-141.42856)"
       style="font-style:normal;font-weight:normal;font-size:40px;line-height:125%;font-family:sans-serif;letter-spacing:0px;word-spacing:0px;fill:#000000;fill-opacity:1;stroke:none;stroke-width:1px;stroke-linecap:butt;stroke-linejoin:miter;stroke-opacity:1"
       id="flowRoot6525"
       xml:space="preserve"><flowRegion
         id="flowRegion6527"><rect
           y="523.07648"
           x="200.71428"
           height="49.999973"
           width="36.42857"
           id="rect6529" /></flowRegion><flowPara
         style="font-style:normal;font-variant:normal;font-weight:normal;font-stretch:normal;font-size:35px;font-family:times;-inkscape-font-specification:times"
         id="flowPara6531">z</flowPara></flowRoot>    <flowRoot
       xml:space="preserve"
       id="flowRoot6533"
       style="font-style:normal;font-weight:normal;font-size:40px;line-height:125%;font-family:sans-serif;letter-spacing:0px;word-spacing:0px;fill:#000000;fill-opacity:1;stroke:none;stroke-width:1px;stroke-linecap:butt;stroke-linejoin:miter;stroke-opacity:1"
       transform="translate(222.85715,-141.59092)"><flowRegion
         id="flowRegion6535"><rect
           id="rect6537"
           width="36.42857"
           height="49.999973"
           x="200.71428"
           y="523.07648" /></flowRegion><flowPara
         id="flowPara6539"
         style="font-style:normal;font-variant:normal;font-weight:normal;font-stretch:normal;font-size:35px;font-family:times;-inkscape-font-specification:times">x</flowPara></flowRoot>    <flowRoot
       transform="translate(147.14286,-7.857137)"
       style="font-style:normal;font-weight:normal;font-size:40px;line-height:125%;font-family:sans-serif;letter-spacing:0px;word-spacing:0px;fill:#000000;fill-opacity:1;stroke:none;stroke-width:1px;stroke-linecap:butt;stroke-linejoin:miter;stroke-opacity:1"
       id="flowRoot6541"
       xml:space="preserve"><flowRegion
         id="flowRegion6543"><rect
           y="523.07648"
           x="200.71428"
           height="49.999973"
           width="36.42857"
           id="rect6545" /></flowRegion><flowPara
         style="font-style:normal;font-variant:normal;font-weight:normal;font-stretch:normal;font-size:35px;font-family:times;-inkscape-font-specification:times"
         id="flowPara6547">y</flowPara></flowRoot>  </g>
</svg>
